<svg xmlns="http://www.w3.org/2000/svg" viewBox="0 0 600 520">
  <defs>
    <linearGradient id="g1" x1="0%" y1="0%" x2="100%" y2="100%">
      <stop offset="0%" stop-color="#082f49"/>
      <stop offset="100%" stop-color="#082f49" stop-opacity="0.75"/>
    </linearGradient>
  </defs>
  <rect width="600" height="520" fill="url(#g1)"/>
  <g opacity="0.06"><line x1="0" y1="0" x2="0" y2="520" stroke="#7dd3fc" stroke-width="0.8"/><line x1="40" y1="0" x2="40" y2="520" stroke="#7dd3fc" stroke-width="0.8"/><line x1="80" y1="0" x2="80" y2="520" stroke="#7dd3fc" stroke-width="0.8"/><line x1="120" y1="0" x2="120" y2="520" stroke="#7dd3fc" stroke-width="0.8"/><line x1="160" y1="0" x2="160" y2="520" stroke="#7dd3fc" stroke-width="0.8"/><line x1="200" y1="0" x2="200" y2="520" stroke="#7dd3fc" stroke-width="0.8"/><line x1="240" y1="0" x2="240" y2="520" stroke="#7dd3fc" stroke-width="0.8"/><line x1="280" y1="0" x2="280" y2="520" stroke="#7dd3fc" stroke-width="0.8"/><line x1="320" y1="0" x2="320" y2="520" stroke="#7dd3fc" stroke-width="0.8"/><line x1="360" y1="0" x2="360" y2="520" stroke="#7dd3fc" stroke-width="0.8"/><line x1="400" y1="0" x2="400" y2="520" stroke="#7dd3fc" stroke-width="0.8"/><line x1="440" y1="0" x2="440" y2="520" stroke="#7dd3fc" stroke-width="0.8"/><line x1="480" y1="0" x2="480" y2="520" stroke="#7dd3fc" stroke-width="0.8"/><line x1="520" y1="0" x2="520" y2="520" stroke="#7dd3fc" stroke-width="0.8"/><line x1="560" y1="0" x2="560" y2="520" stroke="#7dd3fc" stroke-width="0.8"/><line x1="600" y1="0" x2="600" y2="520" stroke="#7dd3fc" stroke-width="0.8"/><line x1="0" y1="0" x2="600" y2="0" stroke="#7dd3fc" stroke-width="0.8"/><line x1="0" y1="40" x2="600" y2="40" stroke="#7dd3fc" stroke-width="0.8"/><line x1="0" y1="80" x2="600" y2="80" stroke="#7dd3fc" stroke-width="0.8"/><line x1="0" y1="120" x2="600" y2="120" stroke="#7dd3fc" stroke-width="0.8"/><line x1="0" y1="160" x2="600" y2="160" stroke="#7dd3fc" stroke-width="0.8"/><line x1="0" y1="200" x2="600" y2="200" stroke="#7dd3fc" stroke-width="0.8"/><line x1="0" y1="240" x2="600" y2="240" stroke="#7dd3fc" stroke-width="0.8"/><line x1="0" y1="280" x2="600" y2="280" stroke="#7dd3fc" stroke-width="0.8"/><line x1="0" y1="320" x2="600" y2="320" stroke="#7dd3fc" stroke-width="0.8"/><line x1="0" y1="360" x2="600" y2="360" stroke="#7dd3fc" stroke-width="0.8"/><line x1="0" y1="400" x2="600" y2="400" stroke="#7dd3fc" stroke-width="0.8"/><line x1="0" y1="440" x2="600" y2="440" stroke="#7dd3fc" stroke-width="0.8"/><line x1="0" y1="480" x2="600" y2="480" stroke="#7dd3fc" stroke-width="0.8"/><line x1="0" y1="520" x2="600" y2="520" stroke="#7dd3fc" stroke-width="0.8"/></g>
  <circle cx="300" cy="260" r="173" fill="#7dd3fc" opacity="0.08"/>
  <circle cx="300" cy="260" r="104" fill="#7dd3fc" opacity="0.12"/>
  <g transform="translate(272,232) scale(2.40)" fill="#7dd3fc" opacity="0.88">
    <path d="M22 11h-4.17l3.24-3.24-1.41-1.42L15 11h-2V9l4.66-4.66-1.42-1.41L13 6.17V2h-2v4.17L7.76 2.93 6.34 4.34 11 9v2H9L4.34 6.34 2.93 7.76 6.17 11H2v2h4.17l-3.24 3.24 1.41 1.42L9 13h2v2l-4.66 4.66 1.42 1.41L11 17.83V22h2v-4.17l3.24 3.24 1.42-1.41L13 15v-2h2l4.66 4.66 1.41-1.42L17.83 13H22v-2z"/>
  </g>
</svg>