<svg xmlns="http://www.w3.org/2000/svg" viewBox="0 0 1400 560">
  <defs>
    <linearGradient id="h" x1="0%" y1="0%" x2="100%" y2="100%">
      <stop offset="0%" stop-color="#082f49"/>
      <stop offset="100%" stop-color="#082f49" stop-opacity="0.7"/>
    </linearGradient>
  </defs>
  <rect width="1400" height="560" fill="url(#h)"/>
  <g opacity="0.05"><line x1="0" y1="0" x2="0" y2="560" stroke="#7dd3fc" stroke-width="0.8"/><line x1="70" y1="0" x2="70" y2="560" stroke="#7dd3fc" stroke-width="0.8"/><line x1="140" y1="0" x2="140" y2="560" stroke="#7dd3fc" stroke-width="0.8"/><line x1="210" y1="0" x2="210" y2="560" stroke="#7dd3fc" stroke-width="0.8"/><line x1="280" y1="0" x2="280" y2="560" stroke="#7dd3fc" stroke-width="0.8"/><line x1="350" y1="0" x2="350" y2="560" stroke="#7dd3fc" stroke-width="0.8"/><line x1="420" y1="0" x2="420" y2="560" stroke="#7dd3fc" stroke-width="0.8"/><line x1="490" y1="0" x2="490" y2="560" stroke="#7dd3fc" stroke-width="0.8"/><line x1="560" y1="0" x2="560" y2="560" stroke="#7dd3fc" stroke-width="0.8"/><line x1="630" y1="0" x2="630" y2="560" stroke="#7dd3fc" stroke-width="0.8"/><line x1="700" y1="0" x2="700" y2="560" stroke="#7dd3fc" stroke-width="0.8"/><line x1="770" y1="0" x2="770" y2="560" stroke="#7dd3fc" stroke-width="0.8"/><line x1="840" y1="0" x2="840" y2="560" stroke="#7dd3fc" stroke-width="0.8"/><line x1="910" y1="0" x2="910" y2="560" stroke="#7dd3fc" stroke-width="0.8"/><line x1="980" y1="0" x2="980" y2="560" stroke="#7dd3fc" stroke-width="0.8"/><line x1="1050" y1="0" x2="1050" y2="560" stroke="#7dd3fc" stroke-width="0.8"/><line x1="1120" y1="0" x2="1120" y2="560" stroke="#7dd3fc" stroke-width="0.8"/><line x1="1190" y1="0" x2="1190" y2="560" stroke="#7dd3fc" stroke-width="0.8"/><line x1="1260" y1="0" x2="1260" y2="560" stroke="#7dd3fc" stroke-width="0.8"/><line x1="1330" y1="0" x2="1330" y2="560" stroke="#7dd3fc" stroke-width="0.8"/><line x1="1400" y1="0" x2="1400" y2="560" stroke="#7dd3fc" stroke-width="0.8"/><line x1="0" y1="0" x2="1400" y2="0" stroke="#7dd3fc" stroke-width="0.8"/><line x1="0" y1="70" x2="1400" y2="70" stroke="#7dd3fc" stroke-width="0.8"/><line x1="0" y1="140" x2="1400" y2="140" stroke="#7dd3fc" stroke-width="0.8"/><line x1="0" y1="210" x2="1400" y2="210" stroke="#7dd3fc" stroke-width="0.8"/><line x1="0" y1="280" x2="1400" y2="280" stroke="#7dd3fc" stroke-width="0.8"/><line x1="0" y1="350" x2="1400" y2="350" stroke="#7dd3fc" stroke-width="0.8"/><line x1="0" y1="420" x2="1400" y2="420" stroke="#7dd3fc" stroke-width="0.8"/><line x1="0" y1="490" x2="1400" y2="490" stroke="#7dd3fc" stroke-width="0.8"/><line x1="0" y1="560" x2="1400" y2="560" stroke="#7dd3fc" stroke-width="0.8"/></g>
  <circle cx="1060" cy="280" r="290" fill="#7dd3fc" opacity="0.07"/>
  <circle cx="1060" cy="280" r="200" fill="#7dd3fc" opacity="0.07"/>
  <circle cx="1060" cy="280" r="120" fill="#7dd3fc" opacity="0.1"/>
  <g transform="translate(1012,232) scale(4)" fill="#7dd3fc" opacity="0.9">
    <path d="M22 11h-4.17l3.24-3.24-1.41-1.42L15 11h-2V9l4.66-4.66-1.42-1.41L13 6.17V2h-2v4.17L7.76 2.93 6.34 4.34 11 9v2H9L4.34 6.34 2.93 7.76 6.17 11H2v2h4.17l-3.24 3.24 1.41 1.42L9 13h2v2l-4.66 4.66 1.42 1.41L11 17.83V22h2v-4.17l3.24 3.24 1.42-1.41L13 15v-2h2l4.66 4.66 1.41-1.42L17.83 13H22v-2z"/>
  </g>
</svg>