<svg xmlns="http://www.w3.org/2000/svg" viewBox="0 0 900 520">
  <defs>
    <linearGradient id="g0" x1="0%" y1="0%" x2="100%" y2="100%">
      <stop offset="0%" stop-color="#2e1065"/>
      <stop offset="100%" stop-color="#2e1065" stop-opacity="0.75"/>
    </linearGradient>
  </defs>
  <rect width="900" height="520" fill="url(#g0)"/>
  <g opacity="0.06"><line x1="0" y1="0" x2="0" y2="520" stroke="#c4b5fd" stroke-width="0.8"/><line x1="40" y1="0" x2="40" y2="520" stroke="#c4b5fd" stroke-width="0.8"/><line x1="80" y1="0" x2="80" y2="520" stroke="#c4b5fd" stroke-width="0.8"/><line x1="120" y1="0" x2="120" y2="520" stroke="#c4b5fd" stroke-width="0.8"/><line x1="160" y1="0" x2="160" y2="520" stroke="#c4b5fd" stroke-width="0.8"/><line x1="200" y1="0" x2="200" y2="520" stroke="#c4b5fd" stroke-width="0.8"/><line x1="240" y1="0" x2="240" y2="520" stroke="#c4b5fd" stroke-width="0.8"/><line x1="280" y1="0" x2="280" y2="520" stroke="#c4b5fd" stroke-width="0.8"/><line x1="320" y1="0" x2="320" y2="520" stroke="#c4b5fd" stroke-width="0.8"/><line x1="360" y1="0" x2="360" y2="520" stroke="#c4b5fd" stroke-width="0.8"/><line x1="400" y1="0" x2="400" y2="520" stroke="#c4b5fd" stroke-width="0.8"/><line x1="440" y1="0" x2="440" y2="520" stroke="#c4b5fd" stroke-width="0.8"/><line x1="480" y1="0" x2="480" y2="520" stroke="#c4b5fd" stroke-width="0.8"/><line x1="520" y1="0" x2="520" y2="520" stroke="#c4b5fd" stroke-width="0.8"/><line x1="560" y1="0" x2="560" y2="520" stroke="#c4b5fd" stroke-width="0.8"/><line x1="600" y1="0" x2="600" y2="520" stroke="#c4b5fd" stroke-width="0.8"/><line x1="640" y1="0" x2="640" y2="520" stroke="#c4b5fd" stroke-width="0.8"/><line x1="680" y1="0" x2="680" y2="520" stroke="#c4b5fd" stroke-width="0.8"/><line x1="720" y1="0" x2="720" y2="520" stroke="#c4b5fd" stroke-width="0.8"/><line x1="760" y1="0" x2="760" y2="520" stroke="#c4b5fd" stroke-width="0.8"/><line x1="800" y1="0" x2="800" y2="520" stroke="#c4b5fd" stroke-width="0.8"/><line x1="840" y1="0" x2="840" y2="520" stroke="#c4b5fd" stroke-width="0.8"/><line x1="880" y1="0" x2="880" y2="520" stroke="#c4b5fd" stroke-width="0.8"/><line x1="0" y1="0" x2="900" y2="0" stroke="#c4b5fd" stroke-width="0.8"/><line x1="0" y1="40" x2="900" y2="40" stroke="#c4b5fd" stroke-width="0.8"/><line x1="0" y1="80" x2="900" y2="80" stroke="#c4b5fd" stroke-width="0.8"/><line x1="0" y1="120" x2="900" y2="120" stroke="#c4b5fd" stroke-width="0.8"/><line x1="0" y1="160" x2="900" y2="160" stroke="#c4b5fd" stroke-width="0.8"/><line x1="0" y1="200" x2="900" y2="200" stroke="#c4b5fd" stroke-width="0.8"/><line x1="0" y1="240" x2="900" y2="240" stroke="#c4b5fd" stroke-width="0.8"/><line x1="0" y1="280" x2="900" y2="280" stroke="#c4b5fd" stroke-width="0.8"/><line x1="0" y1="320" x2="900" y2="320" stroke="#c4b5fd" stroke-width="0.8"/><line x1="0" y1="360" x2="900" y2="360" stroke="#c4b5fd" stroke-width="0.8"/><line x1="0" y1="400" x2="900" y2="400" stroke="#c4b5fd" stroke-width="0.8"/><line x1="0" y1="440" x2="900" y2="440" stroke="#c4b5fd" stroke-width="0.8"/><line x1="0" y1="480" x2="900" y2="480" stroke="#c4b5fd" stroke-width="0.8"/><line x1="0" y1="520" x2="900" y2="520" stroke="#c4b5fd" stroke-width="0.8"/></g>
  <circle cx="450" cy="260" r="173" fill="#c4b5fd" opacity="0.08"/>
  <circle cx="450" cy="260" r="104" fill="#c4b5fd" opacity="0.12"/>
  <g transform="translate(422,232) scale(2.40)" fill="#c4b5fd" opacity="0.88">
    <path d="M7 2h10v4h2v14H5V6h2V2zm2 2v2h6V4H9zM7 8v10h10V8H7zm4 2h2v2h2v2h-2v2h-2v-2H9v-2h2v-2z"/>
  </g>
</svg>