<svg xmlns="http://www.w3.org/2000/svg" viewBox="0 0 600 260">
  <defs>
    <linearGradient id="g2" x1="0%" y1="0%" x2="100%" y2="100%">
      <stop offset="0%" stop-color="#2e1065"/>
      <stop offset="100%" stop-color="#2e1065" stop-opacity="0.75"/>
    </linearGradient>
  </defs>
  <rect width="600" height="260" fill="url(#g2)"/>
  <g opacity="0.06"><line x1="0" y1="0" x2="0" y2="260" stroke="#c4b5fd" stroke-width="0.8"/><line x1="40" y1="0" x2="40" y2="260" stroke="#c4b5fd" stroke-width="0.8"/><line x1="80" y1="0" x2="80" y2="260" stroke="#c4b5fd" stroke-width="0.8"/><line x1="120" y1="0" x2="120" y2="260" stroke="#c4b5fd" stroke-width="0.8"/><line x1="160" y1="0" x2="160" y2="260" stroke="#c4b5fd" stroke-width="0.8"/><line x1="200" y1="0" x2="200" y2="260" stroke="#c4b5fd" stroke-width="0.8"/><line x1="240" y1="0" x2="240" y2="260" stroke="#c4b5fd" stroke-width="0.8"/><line x1="280" y1="0" x2="280" y2="260" stroke="#c4b5fd" stroke-width="0.8"/><line x1="320" y1="0" x2="320" y2="260" stroke="#c4b5fd" stroke-width="0.8"/><line x1="360" y1="0" x2="360" y2="260" stroke="#c4b5fd" stroke-width="0.8"/><line x1="400" y1="0" x2="400" y2="260" stroke="#c4b5fd" stroke-width="0.8"/><line x1="440" y1="0" x2="440" y2="260" stroke="#c4b5fd" stroke-width="0.8"/><line x1="480" y1="0" x2="480" y2="260" stroke="#c4b5fd" stroke-width="0.8"/><line x1="520" y1="0" x2="520" y2="260" stroke="#c4b5fd" stroke-width="0.8"/><line x1="560" y1="0" x2="560" y2="260" stroke="#c4b5fd" stroke-width="0.8"/><line x1="600" y1="0" x2="600" y2="260" stroke="#c4b5fd" stroke-width="0.8"/><line x1="0" y1="0" x2="600" y2="0" stroke="#c4b5fd" stroke-width="0.8"/><line x1="0" y1="40" x2="600" y2="40" stroke="#c4b5fd" stroke-width="0.8"/><line x1="0" y1="80" x2="600" y2="80" stroke="#c4b5fd" stroke-width="0.8"/><line x1="0" y1="120" x2="600" y2="120" stroke="#c4b5fd" stroke-width="0.8"/><line x1="0" y1="160" x2="600" y2="160" stroke="#c4b5fd" stroke-width="0.8"/><line x1="0" y1="200" x2="600" y2="200" stroke="#c4b5fd" stroke-width="0.8"/><line x1="0" y1="240" x2="600" y2="240" stroke="#c4b5fd" stroke-width="0.8"/></g>
  <circle cx="300" cy="130" r="86" fill="#c4b5fd" opacity="0.08"/>
  <circle cx="300" cy="130" r="52" fill="#c4b5fd" opacity="0.12"/>
  <g transform="translate(274,104) scale(2.17)" fill="#c4b5fd" opacity="0.88">
    <path d="M7 2h10v4h2v14H5V6h2V2zm2 2v2h6V4H9zM7 8v10h10V8H7zm4 2h2v2h2v2h-2v2h-2v-2H9v-2h2v-2z"/>
  </g>
</svg>