<svg xmlns="http://www.w3.org/2000/svg" viewBox="0 0 1400 560">
  <defs>
    <linearGradient id="h" x1="0%" y1="0%" x2="100%" y2="100%">
      <stop offset="0%" stop-color="#052e16"/>
      <stop offset="100%" stop-color="#052e16" stop-opacity="0.7"/>
    </linearGradient>
  </defs>
  <rect width="1400" height="560" fill="url(#h)"/>
  <g opacity="0.05"><line x1="0" y1="0" x2="0" y2="560" stroke="#86efac" stroke-width="0.8"/><line x1="70" y1="0" x2="70" y2="560" stroke="#86efac" stroke-width="0.8"/><line x1="140" y1="0" x2="140" y2="560" stroke="#86efac" stroke-width="0.8"/><line x1="210" y1="0" x2="210" y2="560" stroke="#86efac" stroke-width="0.8"/><line x1="280" y1="0" x2="280" y2="560" stroke="#86efac" stroke-width="0.8"/><line x1="350" y1="0" x2="350" y2="560" stroke="#86efac" stroke-width="0.8"/><line x1="420" y1="0" x2="420" y2="560" stroke="#86efac" stroke-width="0.8"/><line x1="490" y1="0" x2="490" y2="560" stroke="#86efac" stroke-width="0.8"/><line x1="560" y1="0" x2="560" y2="560" stroke="#86efac" stroke-width="0.8"/><line x1="630" y1="0" x2="630" y2="560" stroke="#86efac" stroke-width="0.8"/><line x1="700" y1="0" x2="700" y2="560" stroke="#86efac" stroke-width="0.8"/><line x1="770" y1="0" x2="770" y2="560" stroke="#86efac" stroke-width="0.8"/><line x1="840" y1="0" x2="840" y2="560" stroke="#86efac" stroke-width="0.8"/><line x1="910" y1="0" x2="910" y2="560" stroke="#86efac" stroke-width="0.8"/><line x1="980" y1="0" x2="980" y2="560" stroke="#86efac" stroke-width="0.8"/><line x1="1050" y1="0" x2="1050" y2="560" stroke="#86efac" stroke-width="0.8"/><line x1="1120" y1="0" x2="1120" y2="560" stroke="#86efac" stroke-width="0.8"/><line x1="1190" y1="0" x2="1190" y2="560" stroke="#86efac" stroke-width="0.8"/><line x1="1260" y1="0" x2="1260" y2="560" stroke="#86efac" stroke-width="0.8"/><line x1="1330" y1="0" x2="1330" y2="560" stroke="#86efac" stroke-width="0.8"/><line x1="1400" y1="0" x2="1400" y2="560" stroke="#86efac" stroke-width="0.8"/><line x1="0" y1="0" x2="1400" y2="0" stroke="#86efac" stroke-width="0.8"/><line x1="0" y1="70" x2="1400" y2="70" stroke="#86efac" stroke-width="0.8"/><line x1="0" y1="140" x2="1400" y2="140" stroke="#86efac" stroke-width="0.8"/><line x1="0" y1="210" x2="1400" y2="210" stroke="#86efac" stroke-width="0.8"/><line x1="0" y1="280" x2="1400" y2="280" stroke="#86efac" stroke-width="0.8"/><line x1="0" y1="350" x2="1400" y2="350" stroke="#86efac" stroke-width="0.8"/><line x1="0" y1="420" x2="1400" y2="420" stroke="#86efac" stroke-width="0.8"/><line x1="0" y1="490" x2="1400" y2="490" stroke="#86efac" stroke-width="0.8"/><line x1="0" y1="560" x2="1400" y2="560" stroke="#86efac" stroke-width="0.8"/></g>
  <circle cx="1060" cy="280" r="290" fill="#86efac" opacity="0.07"/>
  <circle cx="1060" cy="280" r="200" fill="#86efac" opacity="0.07"/>
  <circle cx="1060" cy="280" r="120" fill="#86efac" opacity="0.1"/>
  <g transform="translate(1012,232) scale(4)" fill="#86efac" opacity="0.9">
    <path d="M12 3L2 12h3v9h6v-5h2v5h6v-9h3L12 3z"/>
  </g>
</svg>